<?xml version="1.0" encoding="UTF-8"?>
<svg id="Camada_1" data-name="Camada 1" xmlns="http://www.w3.org/2000/svg" xmlns:xlink="http://www.w3.org/1999/xlink" viewBox="0 0 1024 1024">
  <defs>
    <style>
      .cls-1 {
        fill: #fff;
      }

      .cls-2 {
        fill: none;
      }

      .cls-3 {
        fill: url(#Gradiente_sem_nome_29);
      }
    </style>
    <linearGradient id="Gradiente_sem_nome_29" data-name="Gradiente sem nome 29" x1="0" y1="512" x2="1024" y2="512" gradientUnits="userSpaceOnUse">
      <stop offset="0" stop-color="lime"/>
      <stop offset="1" stop-color="#ff0"/>
    </linearGradient>
  </defs>
  <rect class="cls-3" x="0" y="0" width="1024" height="1024" rx="170.5" ry="170.5"/>
  <path class="cls-2" d="M798.38,461.95c4.17,10.2,11.47,18.52,25.09,27.62v-52.01l-31.92-35.94c.17,28.05,1.31,46.83,6.83,60.32Z"/>
  <path class="cls-2" d="M798.38,461.95c4.17,10.2,11.47,18.52,25.09,27.62v-52.01l-31.92-35.94c.17,28.05,1.31,46.83,6.83,60.32Z"/>
  <path class="cls-1" d="M854.23,419.19l-106.95-120.44c-6.45-7.27-17.58-7.93-24.85-1.47-7.27,6.45-7.93,17.58-1.47,24.85l35.45,39.92c0,4.76-.02,9.35-.04,13.77-.17,47.23-.27,75.74,9.44,99.46,10.07,24.62,29.61,40.04,57.67,55.23v223.6c0,18.43-19.07,23.35-30.34,23.35s-30.63-4.92-30.63-23.35v-121.44c0-9.26,0-17.26-1.95-24.78-2.72-10.45-8.94-18.32-18.49-23.41-12.73-6.78-31.45-9.33-74.2-9.7V204.26c0-45.63-37.12-82.75-82.75-82.75h-295.22c-45.63,0-82.75,37.12-82.75,82.75v528.11c0,23.38,9.76,44.5,25.4,59.57h-26.61c-22.39,0-40.6,14.39-40.6,32.08v46.38c0,17.69,18.21,32.08,40.6,32.08h463.14c22.39,0,40.6-14.39,40.6-32.08v-46.38c0-17.69-18.21-32.08-40.6-32.08h-26.61c15.64-15.06,25.4-36.19,25.4-59.57v-122.39c19.98.18,33.58.84,43.22,2.08,11.68,1.51,14.7,3.56,15.16,3.94,1.06,2.14,1.06,10.52,1.05,16.66v121.45c0,18.1,7.84,33.99,22.08,44.74,11.8,8.91,27.34,13.81,43.76,13.81s31.88-4.9,43.61-13.8c14.14-10.73,21.93-26.63,21.93-44.75v-323.23c0-4.31-1.58-8.47-4.44-11.69ZM241.04,204.26c0-26.93,21.91-48.84,48.84-48.84h295.22c26.93,0,48.84,21.91,48.84,48.84v528.11c0,26.93-21.91,48.84-48.84,48.84h-295.22c-26.93,0-48.84-21.91-48.84-48.84V204.26ZM669.06,815.12c6.21,0,11.26,3.99,11.26,8.9v46.38c0,4.91-5.05,8.9-11.26,8.9H205.92c-6.21,0-11.26-3.99-11.26-8.9v-46.38c0-4.91,5.05-8.9,11.26-8.9h463.14ZM823.47,489.58c-13.62-9.11-20.91-17.42-25.09-27.62-5.52-13.5-6.67-32.27-6.83-60.32l31.92,35.94v52.01Z"/>
  <path class="cls-1" d="M381.03,508.85c-1.86,1.89-5.94,8.69-6.92,9.43-1.02.76-7.51,2.16-9.53,2.97-16.31,6.53-26.02,20.31-30.41,36.9-.34,1.28-1.03,6.71-1.29,7.12-.2.32-5.08,2.8-6.41,3.93-5.49,4.65-10.68,12.61-10.76,20.02-.02,2.03,1.59,6.52,1.2,7.89-.21.74-3.09,4.07-3.85,5.32-4.98,8.14-7.88,17.43-7,27.12.23,2.53,1.93,6.24,1.93,8.18,0,2.07-2.31,7.02-2.77,9.74-2.43,14.16,2.37,26.23,10.27,37.57,1,1.43,3.37,3.58,3.93,4.73,1.07,2.23,1.38,7.99,2.38,11.09,5.87,18.3,23.51,35.19,43.67,33.78,1.72-.12,4.26-1.3,5.64-.9.56.16,6.52,5.27,8.2,6.25,23.8,14,49.9-.89,53.2-27.25l.03-192.81c-3.4-27.57-34.67-28.21-51.49-11.06ZM377.69,542.52c-1.98-19.63,21.54-46.27,40.14-32.45,2.05,1.52,5.05,5.89,5.05,8.41v37.74c-3.05-.83-6.21-1.21-9.39-.98-3.92.28-6.31,2.94-8.8-.78-2.61-3.91-2.72-9.25.39-12.91,1.92-2.25,5.44-1.9,5.8-5.76.66-7.14-6.19-6.11-10.37-2.66-9.04,7.46-8.82,19.27-2.7,28.55-2.83,1.58-6.2,8.4-8.09,9.7-.57.39-.54.46-1-.08-.69-.8-1.3-2.17-2.13-3.07-3.08-3.34-6.36-6.09-10.29-8.4,1.31-2.46,3.75-5.82,3.82-8.68.06-2.12-2.15-5.85-2.43-8.64ZM337.16,573.65c9.08-1.84,16.99,5.46,21.27,12.64-6.93,3.24-12.78,7.76-17.05,14.15-5.12-4.82-15.37-1.6-16.07-10.38-.44-5.49,6.64-15.36,11.85-16.41ZM324.08,680.27c-7.12-8.47-11.47-20.11-9.38-31.25l7.2,5.06c1.46,1.59,6.54,2.02,7.59,2.74.58.4,3.77,9.63,5.8,10.71l-6.41,6.48-4.8,6.25ZM423.36,710.81c0,7.17-6.32,17.49-12.35,21.31-20.56,13.03-42.43-9.36-47.28-28.49,7.03-2.95,15.68-8.41,22.97-2.8,5.89,4.53,9.85,9.18,18.58,8.24,7.96-.86,6.89-9.78.98-10.01-.91-.03-1.85.48-2.84.48-9.17.05-7.8-10.14-4.56-15.9,5.65,1.47,12.48.59,17.9-1.56,2.44-.96,4.22-2.78,6.61-3.25v31.97ZM423.35,658.39c-1.81,19.71-27.39,21.83-36.63,6.35-2.18-3.65-2.45-10.54-8.11-9.27-6.77,1.53-2.07,10.7.12,14.37,2.7,4.51,6.55,7.93,10.93,10.75-1.13,3.23-2.36,6.37-2.85,9.78-3.29-1.52-7.16-1.76-10.75-1.38-8.81.93-14.16,8.25-23.84,4.98-3.24-1.1-10.13-9.09-12.62-1.54-2.27,6.88,9.74,10.82,14.78,11.88,1.53,7.7,5.22,14.62,9.36,21.16-15.58.47-29.36-14.94-33.3-28.96-.36-1.29-1.3-4.31-1.25-5.44.05-1.19,4.06-6.99,5.04-8.33,1.11-1.52,6.16-7.92,7.42-8.48,1.4-.63,4.64,1.82,6.24,2.41,4.48,1.64,17.4,5.1,18.25-1.96.74-6.14-6.15-5.12-9.71-5.62-15.06-2.13-22.18-17.9-18.03-31.7.95-3.15,3.97-6.28.86-9.3-8.17-7.92-11.96,13.42-11.81,18.06-16-8.21-14.2-29.44-4.26-41.87,3.04,1.53,6.5,1.38,9.58,2.42,7.1,2.4,14.1,15.53,19.46,21.41,13.12,14.38,32.27,24.21,50.53,12.1,3.4-2.26,9.6-6.77,5.92-11.33-3.83-4.74-8.08,1.35-11.02,3.35-15.48,10.52-31.27-1.87-41.11-13.73-1.47-1.77-7.87-9.86-7.71-11.5.3-3.06,8.33-9.62,11.21-10.94,4.46-2.05,10.46-1.21,9.25-8.1-.31-1.78-1.7-4.43-2.59-6.07-4.9-9.07-13.68-16.54-24.12-17.95,2.7-14.92,11.98-29.48,26.93-34.13-.81,3.79-1.62,7.91-1.46,11.8.11,2.63,2.14,8.55,1.94,10.04-.87,6.42-12.98,3.89-10.83,11.83,1.23,4.56,6.79,2.86,10.45,3.97,4.88,1.47,14.3,10.54,14.79,15.54.15,1.46-1.84,7.56-2.26,9.71-.34,1.74-.77,8.39-1.32,9.25-.6.92-8.83,2.11-10.14,6.21-.8,2.48.76,5.84,3.42,6.25,3.65.56,4.76-1.8,7.8-2.72,4.04-1.23,8.79-.46,12.29,1.87,1.61,1.07,3.53,4.02,5.1,4.51,4.68,1.46,8.09-1.83,6.5-6.49-.63-1.85-5.3-5.31-7.11-6.35-2.65-1.54-5.55-2.05-7.95-3.59.67-15.22,8.85-39.16,28.02-36.67.71.09,4.13,1.14,4.13,1.64,0,7.73-.35,15.89,0,23.56.01.22,1.24.83-.23.72-3.16-3.81-18.7-10.52-18.84-1.59-.08,4.72,3.97,4.32,6.84,5.42,8.95,3.41,12.15,10.84,12.74,19.96.76,11.88,1.04,32.09-.03,43.76Z"/>
  <g>
    <path class="cls-2" d="M532.96,674.25c-1.38-.62-4.9,1.94-6.58,2.55-4.39,1.6-17.57,4.81-17.89-2.58-.27-6.15,8.1-4.72,12.09-5.63,14.64-3.35,19.19-18.74,15.42-31.96-.84-2.96-3.8-6.19-.12-8.99,4.34-3.3,7.11.74,8.53,4.43,1.77,4.6,2.48,9.63,2.52,14.55,16.28-8.64,14.95-30.11,4.09-42.68-3.61,2.31-7.52,1.9-11.32,3.96-5.49,2.97-11.71,14.05-16.34,19.24-13.06,14.6-32.17,25.2-50.91,13.44-3.49-2.19-11.05-7.91-5.92-12.23,4.31-3.63,7.93,2.35,11.32,4.43,14.32,8.78,28.39-1.05,38.08-11.63,6.84-7.47,11.86-18.5,21.54-22.69,2.79-1.2,7.98-1.64,9.78-3.44,7.04-7.06-4.51-21.63-12.66-21.77-6.3-.1-13.54,5.75-16.81,10.81-2.34,3.62-3.75,11.5-9.23,9.85-8.05-2.43.67-14.6,3.75-18.21,5.21-6.11,11.58-10.6,19.71-11.79-2.61-14.76-12-29.68-26.91-34.11.75,3.61,1.6,7.6,1.46,11.32-.19,5.21-3.94,9.97.49,13.89,3.14,2.77,9.97,1.74,8.52,8.1-1.05,4.64-6.6,3.08-9.91,4.04-4.57,1.33-9.14,5.47-11.82,9.33-.82,1.19-3.56,5.8-3.64,6.96-.1,1.6,2.33,9.05,2.74,11.64.37,2.29.44,4.97.63,7.3,3.43.3,10.04,2.79,10.54,6.55.43,3.3-1.69,5.69-5.04,5.54-2.16-.1-3.93-2.03-6-2.69-4.51-1.44-9.34-.52-13.14,2.24-2.72,1.98-4.81,6.19-8.94,3.96-5.47-2.95-1.05-8.19,2.14-10.77,3.14-2.54,6.9-4.2,10.83-5.1-.32-16.54-11.14-44.49-32.26-35.46l-.46,24.19c2.27-.83,3.92-2.62,6.15-3.7,3.84-1.87,12.97-5.1,13.41,2.09.33,5.4-7.78,4.96-11.62,7.87-9.59,7.25-7.14,17.68-7.43,28.15-.29,10.38-1.24,21.31-.52,31.73,1.44,20.74,26.08,23.87,36.28,8.35,2.21-3.36,3.06-10.67,7.98-9.86,8.65,1.42.61,14.69-2.43,18.31-2.38,2.83-5.16,4.67-8.12,6.79l2.82,9.13c3.7-.39,6.99-1.11,10.78-.71,8.81.93,14.16,8.25,23.84,4.98,4.17-1.41,6.13-6.51,10.93-3.69,6.08,3.57-1.19,9.7-4.97,11.58-1.62.81-7.25,2.09-7.65,2.45-.57.53-3.3,9.38-4.14,11.24-1.58,3.5-3.78,6.63-5.7,9.92,15.25.63,29.13-14.46,33.18-28.11.44-1.47,1.5-4.9,1.41-6.23-.13-2.08-6.67-10.88-8.38-12.77-.61-.68-3.66-3.89-4.11-4.1Z"/>
    <path class="cls-2" d="M489.06,700.07c-4.36,2.78-5.97,6.34-12.07,8.12-4.9,1.43-15.14,1.89-13.13-5.92,1.11-4.28,6.8-2.15,9.99-2.99,6.31-1.65,4.89-11.58,1.7-15.48-6.1,1.14-12.65.5-18.39-2-1.94-.84-3.55-2.09-5.44-2.97-.23.88-.44,1.69-.51,2.62-.53,7.43-.44,18.53,0,26,.58,9.75,3.96,19.13,12.46,24.56,20.67,13.21,42.74-9.15,47.16-28.64-6.85-2.06-14.62-7.89-21.78-3.32Z"/>
    <path class="cls-2" d="M559.67,649.03c-2.61,1.96-4.8,4.2-7.78,5.68-1.65.82-5.48,1.67-6.39,2.27-1.1.73-4,8.94-5.74,10.49,3.98,4.09,7.76,8.43,10.77,13.29,4.15-5.48,9.08-13.98,9.86-20.91.32-2.83,0-6.64,0-9.62,0-.07-.56-1.25-.72-1.2Z"/>
    <path class="cls-2" d="M468.24,556.75c3.87-4.5,5.32-10.56,1.01-15.39-1.97-2.2-5.21-2.09-5.52-5.56-.46-5.06,3.73-6.59,7.87-4.48,11.24,5.74,12.5,21.52,4.65,30.67,3.72,2.04,6.76,6.27,8.66,10.11,4.02-4.66,7.89-9.4,13.48-12.29-1.04-2.58-3.82-5.81-3.9-8.65-.05-1.95,2.16-5.69,2.42-8.64,1.5-16.89-13.22-37.55-31.43-35.75-6.23.62-12.83,5.17-13.76,11.72v37.74c5.51-1.48,11.1-1.38,16.51.52Z"/>
    <path class="cls-1" d="M569.3,646.6c-.44-2.36-2.68-7.31-2.69-8.86-.02-1.75,1.72-5.63,1.94-8.19.78-9.27-1.63-18.42-6.34-26.34-.75-1.26-4.52-5.94-4.64-6.45-.18-.75,1.17-4.32,1.31-5.73.87-8.82-4.69-16.95-11.23-22.31-1.18-.96-5.51-3.28-5.78-3.84-.55-1.12-.86-5.07-1.34-6.83-4.5-16.43-14.3-30.34-30.51-36.8-2.02-.81-8.61-2.28-9.53-2.97-.73-.55-2.45-4.11-3.38-5.28-7.41-9.37-18.69-16.59-31.07-15.76-12.92.86-23.1,9.45-23.93,22.7-.19,48.88.22,97.77.02,146.66-.07,15.27-2.04,31.77.11,46.96,3.88,27.39,32.21,40.87,55.51,25,1.43-.97,5.21-4.66,6.26-4.84,1.44-.25,3.59.78,5.18.88,23.23,1.39,40.18-18.35,45.21-39.39.41-1.69.22-4.25.96-5.77.46-.95,3.33-3.56,4.26-4.87,7.98-11.31,12.25-23.99,9.68-37.97ZM451.72,518.49c.93-6.55,7.53-11.1,13.76-11.72,18.21-1.8,32.93,18.86,31.43,35.75-.26,2.95-2.48,6.69-2.42,8.64.08,2.84,2.86,6.07,3.9,8.65-5.59,2.89-9.46,7.63-13.48,12.29-1.9-3.84-4.94-8.06-8.66-10.11,7.85-9.16,6.58-24.94-4.65-30.67-4.14-2.11-8.32-.58-7.87,4.48.31,3.46,3.55,3.35,5.52,5.56,4.32,4.83,2.86,10.89-1.01,15.39-5.41-1.89-11-2-16.51-.52v-37.74ZM463.68,732.02c-8.5-5.44-11.88-14.81-12.46-24.56-.45-7.48-.53-18.58,0-26,.07-.93.28-1.74.51-2.62,1.89.88,3.5,2.12,5.44,2.97,5.73,2.5,12.28,3.13,18.39,2,3.19,3.9,4.61,13.83-1.7,15.48-3.19.83-8.88-1.3-9.99,2.99-2.02,7.81,8.22,7.34,13.13,5.92,6.1-1.78,7.71-5.34,12.07-8.12,7.16-4.57,14.93,1.26,21.78,3.32-4.42,19.49-26.49,41.86-47.16,28.64ZM544.04,697.35c-4.05,13.65-17.93,28.75-33.18,28.11,1.92-3.29,4.12-6.42,5.7-9.92.84-1.86,3.57-10.71,4.14-11.24.39-.37,6.03-1.65,7.65-2.45,3.77-1.88,11.05-8.01,4.97-11.58-4.81-2.82-6.76,2.28-10.93,3.69-9.69,3.27-15.04-4.05-23.84-4.98-3.8-.4-7.09.31-10.78.71l-2.82-9.13c2.96-2.13,5.74-3.97,8.12-6.79,3.04-3.61,11.07-16.89,2.43-18.31-4.93-.81-5.78,6.5-7.98,9.86-10.19,15.51-34.84,12.39-36.28-8.35-.72-10.43.23-21.35.52-31.73.29-10.46-2.16-20.89,7.43-28.15,3.85-2.91,11.95-2.47,11.62-7.87-.44-7.19-9.56-3.96-13.41-2.09-2.22,1.08-3.88,2.87-6.15,3.7l.46-24.19c21.12-9.03,31.94,18.92,32.26,35.46-3.93.89-7.69,2.56-10.83,5.1-3.19,2.58-7.61,7.82-2.14,10.77,4.13,2.22,6.22-1.98,8.94-3.96,3.8-2.77,8.62-3.68,13.14-2.24,2.07.66,3.84,2.59,6,2.69,3.35.16,5.47-2.24,5.04-5.54-.49-3.76-7.11-6.25-10.54-6.55-.19-2.33-.26-5.02-.63-7.3-.41-2.59-2.84-10.04-2.74-11.64.07-1.16,2.81-5.77,3.64-6.96,2.68-3.86,7.25-8,11.82-9.33,3.31-.96,8.86.6,9.91-4.04,1.44-6.36-5.39-5.33-8.52-8.1-4.43-3.92-.69-8.69-.49-13.89.14-3.72-.7-7.71-1.46-11.32,14.91,4.43,24.3,19.35,26.91,34.11-8.14,1.19-14.51,5.68-19.71,11.79-3.08,3.61-11.8,15.79-3.75,18.21,5.48,1.65,6.89-6.23,9.23-9.85,3.27-5.06,10.51-10.91,16.81-10.81,8.15.13,19.7,14.71,12.66,21.77-1.8,1.8-6.99,2.24-9.78,3.44-9.68,4.19-14.7,15.22-21.54,22.69-9.69,10.58-23.76,20.41-38.08,11.63-3.39-2.08-7.01-8.05-11.32-4.43-5.13,4.32,2.43,10.04,5.92,12.23,18.74,11.77,37.85,1.16,50.91-13.44,4.64-5.18,10.85-16.27,16.34-19.24,3.8-2.06,7.71-1.64,11.32-3.96,10.86,12.57,12.19,34.04-4.09,42.68-.04-4.92-.75-9.95-2.52-14.55-1.42-3.69-4.19-7.73-8.53-4.43-3.67,2.79-.72,6.03.12,8.99,3.77,13.23-.78,28.62-15.42,31.96-3.99.91-12.35-.51-12.09,5.63.32,7.39,13.5,4.18,17.89,2.58,1.68-.61,5.21-3.17,6.58-2.55.45.2,3.5,3.42,4.11,4.1,1.71,1.9,8.25,10.69,8.38,12.77.09,1.33-.98,4.77-1.41,6.23ZM560.38,659.84c-.78,6.93-5.71,15.43-9.86,20.91-3.01-4.86-6.79-9.19-10.77-13.29,1.73-1.55,4.64-9.76,5.74-10.49.91-.6,4.74-1.45,6.39-2.27,2.98-1.48,5.17-3.72,7.78-5.68.15-.05.72,1.13.72,1.2,0,2.97.32,6.79,0,9.62Z"/>
  </g>
  <path class="cls-1" d="M322.78,450.64h225.1c26.06,0,47.26-21.2,47.26-47.26v-167.96c0-26.06-21.2-47.26-47.26-47.26h-225.1c-26.06,0-47.26,21.2-47.26,47.26v167.96c0,26.06,21.2,47.26,47.26,47.26ZM309.44,235.43c0-7.36,5.99-13.35,13.35-13.35h225.1c7.36,0,13.35,5.99,13.35,13.35v167.96c0,7.36-5.99,13.35-13.35,13.35h-225.1c-7.36,0-13.35-5.99-13.35-13.35v-167.96Z"/>
</svg>