<?xml version="1.0" encoding="UTF-8"?>
<svg id="Camada_1" data-name="Camada 1" xmlns="http://www.w3.org/2000/svg" xmlns:xlink="http://www.w3.org/1999/xlink" viewBox="0 0 1024 1024">
  <defs>
    <style>
      .cls-1 {
        fill: url(#Gradiente_sem_nome_29-11);
      }

      .cls-2 {
        fill: url(#Gradiente_sem_nome_29-4);
      }

      .cls-3 {
        fill: #fff;
      }

      .cls-4 {
        fill: url(#Gradiente_sem_nome_29-12);
      }

      .cls-5 {
        fill: url(#Gradiente_sem_nome_29-9);
      }

      .cls-6 {
        fill: url(#Gradiente_sem_nome_29-6);
      }

      .cls-7 {
        fill: url(#Gradiente_sem_nome_29-8);
      }

      .cls-8 {
        fill: url(#Gradiente_sem_nome_29-10);
      }

      .cls-9 {
        fill: url(#Gradiente_sem_nome_29-5);
      }

      .cls-10 {
        fill: url(#Gradiente_sem_nome_29-2);
      }

      .cls-11 {
        fill: url(#Gradiente_sem_nome_29);
      }

      .cls-12 {
        fill: url(#Gradiente_sem_nome_29-3);
      }

      .cls-13 {
        fill: url(#Gradiente_sem_nome_29-7);
      }
    </style>
    <linearGradient id="Gradiente_sem_nome_29" data-name="Gradiente sem nome 29" x1="304.58" y1="621.33" x2="432.51" y2="621.33" gradientUnits="userSpaceOnUse">
      <stop offset="0" stop-color="lime"/>
      <stop offset="1" stop-color="#ff0"/>
    </linearGradient>
    <linearGradient id="Gradiente_sem_nome_29-2" data-name="Gradiente sem nome 29" x1="441.24" y1="621.26" x2="570.05" y2="621.26" xlink:href="#Gradiente_sem_nome_29"/>
    <linearGradient id="Gradiente_sem_nome_29-3" data-name="Gradiente sem nome 29" x1="275.53" y1="319.41" x2="595.13" y2="319.41" xlink:href="#Gradiente_sem_nome_29"/>
    <linearGradient id="Gradiente_sem_nome_29-4" data-name="Gradiente sem nome 29" x1="165.33" y1="512" x2="858.67" y2="512" xlink:href="#Gradiente_sem_nome_29"/>
    <linearGradient id="Gradiente_sem_nome_29-5" data-name="Gradiente sem nome 29" x1="165.33" y1="512" x2="858.67" y2="512" xlink:href="#Gradiente_sem_nome_29"/>
    <linearGradient id="Gradiente_sem_nome_29-6" data-name="Gradiente sem nome 29" x1="165.33" y1="512" x2="858.67" y2="512" xlink:href="#Gradiente_sem_nome_29"/>
    <linearGradient id="Gradiente_sem_nome_29-7" data-name="Gradiente sem nome 29" x1="165.33" y1="512" x2="858.67" y2="512" xlink:href="#Gradiente_sem_nome_29"/>
    <linearGradient id="Gradiente_sem_nome_29-8" data-name="Gradiente sem nome 29" x1="165.33" y1="512" x2="858.67" y2="512" xlink:href="#Gradiente_sem_nome_29"/>
    <linearGradient id="Gradiente_sem_nome_29-9" data-name="Gradiente sem nome 29" x1="165.33" y1="512" x2="858.67" y2="512" xlink:href="#Gradiente_sem_nome_29"/>
    <linearGradient id="Gradiente_sem_nome_29-10" data-name="Gradiente sem nome 29" x1="165.33" y1="512" x2="858.67" y2="512" xlink:href="#Gradiente_sem_nome_29"/>
    <linearGradient id="Gradiente_sem_nome_29-11" data-name="Gradiente sem nome 29" x1="165.33" y1="512" x2="858.67" y2="512" xlink:href="#Gradiente_sem_nome_29"/>
    <linearGradient id="Gradiente_sem_nome_29-12" data-name="Gradiente sem nome 29" x1="165.33" y1="512" x2="858.67" y2="512" xlink:href="#Gradiente_sem_nome_29"/>
  </defs>
  <rect class="cls-3" x="0" y="0" width="1024" height="1024" rx="170.5" ry="170.5"/>
  <g>
    <g>
      <path class="cls-11" d="M381.03,508.85c-1.86,1.89-5.94,8.69-6.92,9.43-1.02.76-7.51,2.16-9.53,2.97-16.31,6.53-26.02,20.31-30.41,36.9-.34,1.28-1.03,6.71-1.29,7.12-.2.32-5.08,2.8-6.41,3.93-5.49,4.65-10.68,12.61-10.76,20.02-.02,2.03,1.59,6.52,1.2,7.89-.21.74-3.09,4.07-3.85,5.32-4.98,8.14-7.88,17.43-7,27.12.23,2.53,1.93,6.24,1.93,8.18,0,2.07-2.31,7.02-2.77,9.74-2.43,14.16,2.37,26.23,10.27,37.57,1,1.43,3.37,3.58,3.93,4.73,1.07,2.23,1.38,7.99,2.38,11.09,5.87,18.3,23.51,35.19,43.67,33.78,1.72-.12,4.26-1.3,5.64-.9.56.16,6.52,5.27,8.2,6.25,23.8,14,49.9-.89,53.2-27.25l.03-192.81c-3.4-27.57-34.67-28.21-51.49-11.06ZM377.69,542.52c-1.98-19.63,21.54-46.27,40.14-32.45,2.05,1.52,5.05,5.89,5.05,8.41v37.74c-3.05-.83-6.21-1.21-9.39-.98-3.92.28-6.31,2.94-8.8-.78-2.61-3.91-2.72-9.25.39-12.91,1.92-2.25,5.44-1.9,5.8-5.76.66-7.14-6.19-6.11-10.37-2.66-9.04,7.46-8.82,19.27-2.7,28.55-2.83,1.58-6.2,8.4-8.09,9.7-.57.39-.54.46-1-.08-.69-.8-1.3-2.17-2.13-3.07-3.08-3.34-6.36-6.09-10.29-8.4,1.31-2.46,3.75-5.82,3.82-8.68.06-2.12-2.15-5.85-2.43-8.64ZM337.16,573.65c9.08-1.84,16.99,5.46,21.27,12.64-6.93,3.24-12.78,7.76-17.05,14.15-5.12-4.82-15.37-1.6-16.07-10.38-.44-5.49,6.64-15.36,11.85-16.41ZM324.08,680.27c-7.12-8.47-11.47-20.11-9.38-31.25l7.2,5.06c1.46,1.59,6.54,2.02,7.59,2.74.58.4,3.77,9.63,5.8,10.71l-6.41,6.48-4.8,6.25ZM423.36,710.81c0,7.17-6.32,17.49-12.35,21.31-20.56,13.03-42.43-9.36-47.28-28.49,7.03-2.95,15.68-8.41,22.97-2.8,5.89,4.53,9.85,9.18,18.58,8.24,7.96-.86,6.89-9.78.98-10.01-.91-.03-1.85.48-2.84.48-9.17.05-7.8-10.14-4.56-15.9,5.65,1.47,12.48.59,17.9-1.56,2.44-.96,4.22-2.78,6.61-3.25v31.97ZM423.35,658.39c-1.81,19.71-27.39,21.83-36.63,6.35-2.18-3.65-2.45-10.54-8.11-9.27-6.77,1.53-2.07,10.7.12,14.37,2.7,4.51,6.55,7.93,10.93,10.75-1.13,3.23-2.36,6.37-2.85,9.78-3.29-1.52-7.16-1.76-10.75-1.38-8.81.93-14.16,8.25-23.84,4.98-3.24-1.1-10.13-9.09-12.62-1.54-2.27,6.88,9.74,10.82,14.78,11.88,1.53,7.7,5.22,14.62,9.36,21.16-15.58.47-29.36-14.94-33.3-28.96-.36-1.29-1.3-4.31-1.25-5.44.05-1.19,4.06-6.99,5.04-8.33,1.11-1.52,6.16-7.92,7.42-8.48,1.4-.63,4.64,1.82,6.24,2.41,4.48,1.64,17.4,5.1,18.25-1.96.74-6.14-6.15-5.12-9.71-5.62-15.06-2.13-22.18-17.9-18.03-31.7.95-3.15,3.97-6.28.86-9.3-8.17-7.92-11.96,13.42-11.81,18.06-16-8.21-14.2-29.44-4.26-41.87,3.04,1.53,6.5,1.38,9.58,2.42,7.1,2.4,14.1,15.53,19.46,21.41,13.12,14.38,32.27,24.21,50.53,12.1,3.4-2.26,9.6-6.77,5.92-11.33-3.83-4.74-8.08,1.35-11.02,3.35-15.48,10.52-31.27-1.87-41.11-13.73-1.47-1.77-7.87-9.86-7.71-11.5.3-3.06,8.33-9.62,11.21-10.94,4.46-2.05,10.46-1.21,9.25-8.1-.31-1.78-1.7-4.43-2.59-6.07-4.9-9.07-13.68-16.54-24.12-17.95,2.7-14.92,11.98-29.48,26.93-34.13-.81,3.79-1.62,7.91-1.46,11.8.11,2.63,2.14,8.55,1.94,10.04-.87,6.42-12.98,3.89-10.83,11.83,1.23,4.56,6.79,2.86,10.45,3.97,4.88,1.47,14.3,10.54,14.79,15.54.15,1.46-1.84,7.56-2.26,9.71-.34,1.74-.77,8.39-1.32,9.25-.6.92-8.83,2.11-10.14,6.21-.8,2.48.76,5.84,3.42,6.25,3.65.56,4.76-1.8,7.8-2.72,4.04-1.23,8.79-.46,12.29,1.87,1.61,1.07,3.53,4.02,5.1,4.51,4.68,1.46,8.09-1.83,6.5-6.49-.63-1.85-5.3-5.31-7.11-6.35-2.65-1.54-5.55-2.05-7.95-3.59.67-15.22,8.85-39.16,28.02-36.67.71.09,4.13,1.14,4.13,1.64,0,7.73-.35,15.89,0,23.56.01.22,1.24.83-.23.72-3.16-3.81-18.7-10.52-18.84-1.59-.08,4.72,3.97,4.32,6.84,5.42,8.95,3.41,12.15,10.84,12.74,19.96.76,11.88,1.04,32.09-.03,43.76Z"/>
      <path class="cls-10" d="M566.61,637.73c-.02-1.75,1.72-5.63,1.94-8.19.78-9.27-1.63-18.42-6.34-26.34-.75-1.26-4.52-5.94-4.64-6.45-.18-.75,1.17-4.32,1.31-5.73.87-8.82-4.69-16.95-11.23-22.31-1.18-.96-5.51-3.28-5.78-3.84-.55-1.12-.86-5.07-1.34-6.83-4.5-16.43-14.3-30.34-30.51-36.8-2.02-.81-8.61-2.28-9.53-2.97-.73-.55-2.45-4.11-3.38-5.28-7.41-9.37-18.69-16.59-31.07-15.76-12.92.86-23.1,9.45-23.93,22.7-.19,48.88.22,97.77.02,146.66-.07,15.27-2.04,31.77.11,46.96,3.88,27.39,32.21,40.87,55.51,25,1.43-.97,5.21-4.66,6.26-4.84,1.44-.25,3.59.78,5.18.88,23.23,1.39,40.18-18.35,45.21-39.39.41-1.69.22-4.25.96-5.77.46-.95,3.33-3.56,4.26-4.87,7.98-11.31,12.25-23.99,9.68-37.97-.44-2.36-2.68-7.31-2.69-8.86ZM451.72,518.49c.93-6.55,7.53-11.1,13.76-11.72,18.21-1.8,32.93,18.86,31.43,35.75-.26,2.95-2.48,6.69-2.42,8.64.08,2.84,2.86,6.07,3.9,8.65-5.59,2.89-9.46,7.63-13.48,12.29-1.9-3.84-4.94-8.06-8.66-10.11,7.85-9.16,6.58-24.94-4.65-30.67-4.14-2.11-8.32-.58-7.87,4.48.31,3.46,3.55,3.35,5.52,5.56,4.32,4.83,2.86,10.89-1.01,15.39-5.41-1.89-11-2-16.51-.52v-37.74ZM463.68,732.02c-8.5-5.44-11.88-14.81-12.46-24.56-.45-7.48-.53-18.58,0-26,.07-.93.28-1.74.51-2.62,1.89.88,3.5,2.12,5.44,2.97,5.73,2.5,12.28,3.13,18.39,2,3.19,3.9,4.61,13.83-1.7,15.48-3.19.83-8.88-1.3-9.99,2.99-2.02,7.81,8.22,7.34,13.13,5.92,6.1-1.78,7.71-5.34,12.07-8.12,7.16-4.57,14.93,1.26,21.78,3.32-4.42,19.49-26.49,41.86-47.16,28.64ZM544.04,697.35c-4.05,13.65-17.93,28.75-33.18,28.11,1.92-3.29,4.12-6.42,5.7-9.92.84-1.86,3.57-10.71,4.14-11.24.39-.37,6.03-1.65,7.65-2.45,3.77-1.88,11.05-8.01,4.97-11.58-4.81-2.82-6.76,2.28-10.93,3.69-9.69,3.27-15.04-4.05-23.84-4.98-3.8-.4-7.09.31-10.78.71l-2.82-9.13c2.96-2.13,5.74-3.97,8.12-6.79,3.04-3.61,11.07-16.89,2.43-18.31-4.93-.81-5.78,6.5-7.98,9.86-10.19,15.51-34.84,12.39-36.28-8.35-.72-10.43.23-21.35.52-31.73.29-10.46-2.16-20.89,7.43-28.15,3.85-2.91,11.95-2.47,11.62-7.87-.44-7.19-9.56-3.96-13.41-2.09-2.22,1.08-3.88,2.87-6.15,3.7l.46-24.19c21.12-9.03,31.94,18.92,32.26,35.46-3.93.89-7.69,2.56-10.83,5.1-3.19,2.58-7.61,7.82-2.14,10.77,4.13,2.22,6.22-1.98,8.94-3.96,3.8-2.77,8.62-3.68,13.14-2.24,2.07.66,3.84,2.59,6,2.69,3.35.16,5.47-2.24,5.04-5.54-.49-3.76-7.11-6.25-10.54-6.55-.19-2.33-.26-5.02-.63-7.3-.41-2.59-2.84-10.04-2.74-11.64.07-1.16,2.81-5.77,3.64-6.96,2.68-3.86,7.25-8,11.82-9.33,3.31-.96,8.86.6,9.91-4.04,1.44-6.36-5.39-5.33-8.52-8.1-4.43-3.92-.69-8.69-.49-13.89.14-3.72-.7-7.71-1.46-11.32,14.91,4.43,24.3,19.35,26.91,34.11-8.14,1.19-14.51,5.68-19.71,11.79-3.08,3.61-11.8,15.79-3.75,18.21,5.48,1.65,6.89-6.23,9.23-9.85,3.27-5.06,10.51-10.91,16.81-10.81,8.15.13,19.7,14.71,12.66,21.77-1.8,1.8-6.99,2.24-9.78,3.44-9.68,4.19-14.7,15.22-21.54,22.69-9.69,10.58-23.76,20.41-38.08,11.63-3.39-2.08-7.01-8.05-11.32-4.43-5.13,4.32,2.43,10.04,5.92,12.23,18.74,11.77,37.85,1.16,50.91-13.44,4.64-5.18,10.85-16.27,16.34-19.24,3.8-2.06,7.71-1.64,11.32-3.96,10.86,12.57,12.19,34.04-4.09,42.68-.04-4.92-.75-9.95-2.52-14.55-1.42-3.69-4.19-7.73-8.53-4.43-3.67,2.79-.72,6.03.12,8.99,3.77,13.23-.78,28.62-15.42,31.96-3.99.91-12.35-.51-12.09,5.63.32,7.39,13.5,4.18,17.89,2.58,1.68-.61,5.21-3.17,6.58-2.55.45.2,3.5,3.42,4.11,4.1,1.71,1.9,8.25,10.69,8.38,12.77.09,1.33-.98,4.77-1.41,6.23ZM560.38,659.84c-.78,6.93-5.71,15.43-9.86,20.91-3.01-4.86-6.79-9.19-10.77-13.29,1.73-1.55,4.64-9.76,5.74-10.49.91-.6,4.74-1.45,6.39-2.27,2.98-1.48,5.17-3.72,7.78-5.68.15-.05.72,1.13.72,1.2,0,2.97.32,6.79,0,9.62Z"/>
      <path class="cls-12" d="M322.78,450.64h225.1c26.06,0,47.26-21.2,47.26-47.26v-167.96c0-26.06-21.2-47.26-47.26-47.26h-225.1c-26.06,0-47.26,21.2-47.26,47.26v167.96c0,26.06,21.2,47.26,47.26,47.26ZM309.44,235.43c0-7.36,5.99-13.35,13.35-13.35h225.1c7.36,0,13.35,5.99,13.35,13.35v167.96c0,7.36-5.99,13.35-13.35,13.35h-225.1c-7.36,0-13.35-5.99-13.35-13.35v-167.96Z"/>
      <path class="cls-2" d="M854.23,419.19l-106.95-120.44c-6.45-7.27-17.58-7.93-24.85-1.47-7.27,6.45-7.93,17.58-1.47,24.85l35.45,39.92c0,4.76-.02,9.35-.04,13.77-.17,47.23-.27,75.74,9.44,99.46,10.07,24.62,29.61,40.04,57.67,55.23v223.6c0,18.43-19.07,23.35-30.34,23.35s-30.63-4.92-30.63-23.35v-121.44c0-9.26,0-17.26-1.95-24.78-2.72-10.45-8.94-18.32-18.49-23.41-12.73-6.78-31.45-9.33-74.2-9.7V204.26c0-45.63-37.12-82.75-82.75-82.75h-295.22c-45.63,0-82.75,37.12-82.75,82.75v528.11c0,23.38,9.76,44.5,25.4,59.57h-26.61c-22.39,0-40.6,14.39-40.6,32.08v46.38c0,17.69,18.21,32.08,40.6,32.08h463.14c22.39,0,40.6-14.39,40.6-32.08v-46.38c0-17.69-18.21-32.08-40.6-32.08h-26.61c15.64-15.06,25.4-36.19,25.4-59.57v-122.39c19.98.18,33.58.84,43.22,2.08,11.68,1.51,14.7,3.56,15.16,3.94,1.06,2.14,1.06,10.52,1.05,16.66v121.45c0,18.1,7.84,33.99,22.08,44.74,11.8,8.91,27.34,13.81,43.76,13.81s31.88-4.9,43.61-13.8c14.14-10.73,21.93-26.63,21.93-44.75v-323.23c0-4.31-1.58-8.47-4.44-11.69ZM669.06,815.12c6.21,0,11.26,3.99,11.26,8.9v46.38c0,4.91-5.05,8.9-11.26,8.9H205.92c-6.21,0-11.26-3.99-11.26-8.9v-46.38c0-4.91,5.05-8.9,11.26-8.9h463.14ZM241.04,204.26c0-26.93,21.91-48.84,48.84-48.84h295.22c26.93,0,48.84,21.91,48.84,48.84v528.11c0,26.93-21.91,48.84-48.84,48.84h-295.22c-26.93,0-48.84-21.91-48.84-48.84V204.26ZM823.47,489.58c-13.62-9.11-20.91-17.42-25.09-27.62-5.52-13.5-6.67-32.27-6.83-60.32l31.92,35.94v52.01Z"/>
    </g>
    <g>
      <g>
        <path class="cls-9" d="M381.03,508.85c-1.86,1.89-5.94,8.69-6.92,9.43-1.02.76-7.51,2.16-9.53,2.97-16.31,6.53-26.02,20.31-30.41,36.9-.34,1.28-1.03,6.71-1.29,7.12-.2.32-5.08,2.8-6.41,3.93-5.49,4.65-10.68,12.61-10.76,20.02-.02,2.03,1.59,6.52,1.2,7.89-.21.74-3.09,4.07-3.85,5.32-4.98,8.14-7.88,17.43-7,27.12.23,2.53,1.93,6.24,1.93,8.18,0,2.07-2.31,7.02-2.77,9.74-2.43,14.16,2.37,26.23,10.27,37.57,1,1.43,3.37,3.58,3.93,4.73,1.07,2.23,1.38,7.99,2.38,11.09,5.87,18.3,23.51,35.19,43.67,33.78,1.72-.12,4.26-1.3,5.64-.9.56.16,6.52,5.27,8.2,6.25,23.8,14,49.9-.89,53.2-27.25l.03-192.81c-3.4-27.57-34.67-28.21-51.49-11.06ZM377.69,542.52c-1.98-19.63,21.54-46.27,40.14-32.45,2.05,1.52,5.05,5.89,5.05,8.41v37.74c-3.05-.83-6.21-1.21-9.39-.98-3.92.28-6.31,2.94-8.8-.78-2.61-3.91-2.72-9.25.39-12.91,1.92-2.25,5.44-1.9,5.8-5.76.66-7.14-6.19-6.11-10.37-2.66-9.04,7.46-8.82,19.27-2.7,28.55-2.83,1.58-6.2,8.4-8.09,9.7-.57.39-.54.46-1-.08-.69-.8-1.3-2.17-2.13-3.07-3.08-3.34-6.36-6.09-10.29-8.4,1.31-2.46,3.75-5.82,3.82-8.68.06-2.12-2.15-5.85-2.43-8.64ZM337.16,573.65c9.08-1.84,16.99,5.46,21.27,12.64-6.93,3.24-12.78,7.76-17.05,14.15-5.12-4.82-15.37-1.6-16.07-10.38-.44-5.49,6.64-15.36,11.85-16.41ZM324.08,680.27c-7.12-8.47-11.47-20.11-9.38-31.25l7.2,5.06c1.46,1.59,6.54,2.02,7.59,2.74.58.4,3.77,9.63,5.8,10.71l-6.41,6.48-4.8,6.25ZM423.36,710.81c0,7.17-6.32,17.49-12.35,21.31-20.56,13.03-42.43-9.36-47.28-28.49,7.03-2.95,15.68-8.41,22.97-2.8,5.89,4.53,9.85,9.18,18.58,8.24,7.96-.86,6.89-9.78.98-10.01-.91-.03-1.85.48-2.84.48-9.17.05-7.8-10.14-4.56-15.9,5.65,1.47,12.48.59,17.9-1.56,2.44-.96,4.22-2.78,6.61-3.25v31.97ZM423.35,658.39c-1.81,19.71-27.39,21.83-36.63,6.35-2.18-3.65-2.45-10.54-8.11-9.27-6.77,1.53-2.07,10.7.12,14.37,2.7,4.51,6.55,7.93,10.93,10.75-1.13,3.23-2.36,6.37-2.85,9.78-3.29-1.52-7.16-1.76-10.75-1.38-8.81.93-14.16,8.25-23.84,4.98-3.24-1.1-10.13-9.09-12.62-1.54-2.27,6.88,9.74,10.82,14.78,11.88,1.53,7.7,5.22,14.62,9.36,21.16-15.58.47-29.36-14.94-33.3-28.96-.36-1.29-1.3-4.31-1.25-5.44.05-1.19,4.06-6.99,5.04-8.33,1.11-1.52,6.16-7.92,7.42-8.48,1.4-.63,4.64,1.82,6.24,2.41,4.48,1.64,17.4,5.1,18.25-1.96.74-6.14-6.15-5.12-9.71-5.62-15.06-2.13-22.18-17.9-18.03-31.7.95-3.15,3.97-6.28.86-9.3-8.17-7.92-11.96,13.42-11.81,18.06-16-8.21-14.2-29.44-4.26-41.87,3.04,1.53,6.5,1.38,9.58,2.42,7.1,2.4,14.1,15.53,19.46,21.41,13.12,14.38,32.27,24.21,50.53,12.1,3.4-2.26,9.6-6.77,5.92-11.33-3.83-4.74-8.08,1.35-11.02,3.35-15.48,10.52-31.27-1.87-41.11-13.73-1.47-1.77-7.87-9.86-7.71-11.5.3-3.06,8.33-9.62,11.21-10.94,4.46-2.05,10.46-1.21,9.25-8.1-.31-1.78-1.7-4.43-2.59-6.07-4.9-9.07-13.68-16.54-24.12-17.95,2.7-14.92,11.98-29.48,26.93-34.13-.81,3.79-1.62,7.91-1.46,11.8.11,2.63,2.14,8.55,1.94,10.04-.87,6.42-12.98,3.89-10.83,11.83,1.23,4.56,6.79,2.86,10.45,3.97,4.88,1.47,14.3,10.54,14.79,15.54.15,1.46-1.84,7.56-2.26,9.71-.34,1.74-.77,8.39-1.32,9.25-.6.92-8.83,2.11-10.14,6.21-.8,2.48.76,5.84,3.42,6.25,3.65.56,4.76-1.8,7.8-2.72,4.04-1.23,8.79-.46,12.29,1.87,1.61,1.07,3.53,4.02,5.1,4.51,4.68,1.46,8.09-1.83,6.5-6.49-.63-1.85-5.3-5.31-7.11-6.35-2.65-1.54-5.55-2.05-7.95-3.59.67-15.22,8.85-39.16,28.02-36.67.71.09,4.13,1.14,4.13,1.64,0,7.73-.35,15.89,0,23.56.01.22,1.24.83-.23.72-3.16-3.81-18.7-10.52-18.84-1.59-.08,4.72,3.97,4.32,6.84,5.42,8.95,3.41,12.15,10.84,12.74,19.96.76,11.88,1.04,32.09-.03,43.76Z"/>
        <path class="cls-6" d="M407.61,498.33c13.28,0,22.21,8.09,23.9,21.65l-.03,192.68c-2.32,18.36-16.36,31.68-33.39,31.68-6.25,0-12.41-1.76-18.3-5.23-.82-.48-2.97-2.2-4.69-3.59-2.85-2.29-3.34-2.65-3.74-2.77-.28-.08-.59-.12-.94-.12-.9,0-1.92.27-2.92.53-.76.2-1.54.41-2.14.45-.76.05-1.54.08-2.3.08-8.78,0-17.45-3.49-25.06-10.09-7.04-6.11-12.47-14.3-15.28-23.07-.43-1.34-.74-3.28-1.04-5.16-.38-2.42-.75-4.71-1.39-6.05-.37-.78-1.28-1.76-2.23-2.8-.67-.73-1.37-1.49-1.77-2.07-8.99-12.9-12.2-24.61-10.1-36.83.19-1.14.77-2.79,1.33-4.39.75-2.17,1.46-4.21,1.46-5.52,0-1.14-.46-2.65-.95-4.25-.43-1.42-.88-2.88-.98-4.02-.78-8.72,1.59-17.89,6.86-26.5.3-.49,1.02-1.41,1.72-2.3,1.47-1.88,2.09-2.71,2.25-3.26.26-.93-.03-2.37-.55-4.63-.31-1.34-.62-2.72-.61-3.52.07-7.29,5.28-14.93,10.4-19.26.7-.59,2.67-1.71,4.12-2.52,1.98-1.12,2.28-1.3,2.49-1.62.22-.34.34-.91.83-4.05.21-1.32.44-2.82.58-3.35,4.7-17.78,15.01-30.31,29.81-36.23.8-.32,2.48-.77,4.1-1.21,3.34-.9,4.99-1.38,5.66-1.89.58-.43,1.49-1.76,3.19-4.27,1.38-2.03,2.94-4.34,3.85-5.26,6.9-7.03,16.57-11.23,25.87-11.23M389.18,572.7c.41,0,.71-.21.97-.39l.14-.1c.97-.66,2.07-2.28,3.36-4.14,1.44-2.1,3.24-4.72,4.65-5.51l.94-.52-.59-.9c-5.34-8.11-6.64-19.68,2.51-27.23,1.79-1.48,4.09-2.44,5.85-2.44.95,0,1.68.27,2.16.79.62.68.88,1.87.73,3.44-.18,1.89-1.24,2.43-2.71,3.19-.94.48-2.01,1.03-2.85,2.02-3.26,3.83-3.45,9.63-.46,14.11,1.1,1.64,2.34,2.41,3.9,2.41.92,0,1.83-.27,2.8-.55.94-.27,1.91-.56,3-.64.59-.04,1.19-.06,1.79-.06,2.37,0,4.82.34,7.27,1.01l1.26.35v-39.05c0-3-3.26-7.58-5.45-9.22-3.59-2.67-7.51-4.02-11.67-4.02-6.82,0-13.85,3.63-19.81,10.22-7.21,7.98-11.14,18.38-10.25,27.15.15,1.49.76,3.12,1.35,4.7.54,1.44,1.1,2.92,1.07,3.82-.05,1.96-1.45,4.33-2.67,6.43-.38.64-.73,1.24-1.03,1.82l-.45.85.83.49c3.72,2.19,6.92,4.8,10.06,8.21.38.41.73.99,1.08,1.55.34.55.66,1.07,1.03,1.5.3.34.64.73,1.22.73M385.36,637.18c4.48,0,8.8-1.39,12.85-4.15.7-.47,1.43-1.13,2.2-1.82,1.63-1.46,3.48-3.12,5.12-3.12.83,0,1.61.46,2.36,1.39.74.91,1.02,1.83.87,2.8-.47,3.02-4.89,5.96-6.56,7.07-5.29,3.51-10.94,5.29-16.78,5.29-14.57,0-26.6-10.79-32.47-17.23-1.65-1.8-3.48-4.35-5.42-7.04-4.35-6.04-9.29-12.89-14.46-14.64-1.36-.46-2.77-.7-4.14-.93-1.88-.32-3.66-.62-5.3-1.44l-.72-.36-.51.63c-6.33,7.92-9.17,18.88-7.23,27.91,1.48,6.92,5.57,12.27,11.82,15.47l1.51.77-.05-1.69c-.09-2.97,1.62-13.97,5.24-17.7.71-.73,1.4-1.08,2.11-1.08.84,0,1.77.49,2.77,1.46,1.72,1.67,1.13,3.2-.07,5.76-.38.82-.78,1.67-1.05,2.54-2.33,7.74-1.25,16.24,2.9,22.73,3.63,5.67,9.29,9.31,15.94,10.25.7.1,1.48.14,2.31.18,2.28.12,4.87.26,5.98,1.58.53.63.71,1.52.57,2.74-.1.84-.41,3.38-5.82,3.38-3.65,0-8.25-1.21-11.09-2.24-.44-.16-1.09-.52-1.77-.9-1.48-.82-3.01-1.67-4.28-1.67-.35,0-.67.06-.95.19-1.79.81-7.76,8.73-7.82,8.81-.05.07-5.16,7.09-5.23,8.88-.04,1.04.5,3.01,1.1,5.1.07.25.14.47.19.65,4.02,14.28,17.99,29.7,33.57,29.7.24,0,.48,0,.72-.01l1.75-.05-.94-1.48c-3.45-5.44-7.61-12.73-9.23-20.82l-.13-.65-.65-.14c-4.05-.85-11.49-3.31-13.68-7.11-.65-1.12-.76-2.26-.36-3.48.83-2.51,2-2.52,2.44-2.52h0c1.59,0,3.78,1.51,5.53,2.72,1.28.89,2.39,1.65,3.37,1.98,1.77.6,3.47.89,5.19.89,3.83,0,7.09-1.49,10.25-2.93,2.74-1.25,5.58-2.55,8.83-2.89.96-.1,1.91-.15,2.83-.15,2.83,0,5.32.49,7.4,1.45l1.22.56.19-1.33c.41-2.84,1.34-5.47,2.33-8.24.16-.45.32-.9.48-1.35l.26-.74-.66-.43c-4.79-3.08-8.26-6.49-10.61-10.42-2.9-4.86-4.1-9.01-3.2-11.11.39-.91,1.19-1.49,2.44-1.77.38-.09.75-.13,1.08-.13,2.26,0,3.16,2.02,4.38,5.33.46,1.25.93,2.54,1.57,3.6,3.94,6.6,11.26,10.7,19.12,10.7,8.84,0,18.26-5.4,19.36-17.47,1.05-11.38.84-31.27.03-43.92-.69-10.85-5.07-17.66-13.38-20.83-.71-.27-1.45-.45-2.18-.62-2.67-.65-4.06-1.11-4.02-3.84.02-1.48.46-3.44,3.93-3.44,4.58,0,11.32,3.48,13.14,5.66l.27.32.42.03c.16.01.29.02.4.02.69,0,1.14-.25,1.33-.74.25-.65-.18-1.14-.43-1.38-.22-4.99-.14-10.26-.06-15.36.04-2.58.08-5.24.08-7.81,0-1.71-4.95-2.63-5-2.63-.96-.12-1.92-.19-2.85-.19-17.95,0-25.66,23.19-26.3,37.81l-.03.58.49.31c1.34.85,2.81,1.41,4.23,1.95,1.26.48,2.56.97,3.76,1.66,2,1.16,6.18,4.41,6.66,5.81.55,1.61.44,3.06-.3,4.1-.65.91-1.75,1.42-3.07,1.42-.6,0-1.23-.1-1.88-.3-.65-.2-1.63-1.26-2.49-2.18-.77-.83-1.57-1.68-2.35-2.21-2.54-1.69-5.67-2.62-8.83-2.62-1.5,0-2.94.21-4.3.62-1.25.38-2.2.98-3.04,1.5-1.13.71-2.02,1.26-3.4,1.26-.29,0-.59-.02-.91-.07-.83-.13-1.58-.67-2.11-1.54-.64-1.04-.84-2.38-.51-3.42.76-2.36,4.8-3.74,7.22-4.56,1.73-.59,2.45-.85,2.81-1.41.41-.64.64-2.21,1.07-6.33.14-1.38.28-2.68.4-3.27.14-.74.5-2.02.87-3.38.91-3.32,1.51-5.58,1.4-6.62-.57-5.68-10.53-14.89-15.5-16.39-1.25-.38-2.64-.46-3.99-.53-3.18-.18-5.15-.41-5.79-2.74-.9-3.31,1.02-4.24,4.48-5.61,2.77-1.09,5.9-2.33,6.37-5.83.12-.89-.26-2.49-.89-5.03-.47-1.87-.99-3.99-1.04-5.19-.15-3.76.63-7.77,1.44-11.55l.36-1.67-1.63.51c-16.64,5.18-25.17,21.42-27.61,34.9l-.19,1.03,1.04.14c9.43,1.27,18.17,7.79,23.38,17.44.6,1.1,2.18,4.03,2.48,5.77.71,4.06-1.11,4.74-4.97,5.79-1.23.33-2.5.68-3.71,1.23-2.61,1.2-11.42,7.94-11.79,11.75-.23,2.32,7.1,11.23,7.94,12.23,6.84,8.24,17.52,18.06,29.59,18.06M341.57,601.98l.66-.98c3.93-5.89,9.38-10.41,16.64-13.8l1-.47-.57-.95c-1.88-3.15-8.82-13.41-19.27-13.41-1.02,0-2.05.1-3.06.31-5.68,1.15-13.13,11.44-12.65,17.47.48,6.05,5.17,7.14,9.31,8.1,2.58.6,5.26,1.22,7.08,2.93l.86.81M324.12,681.87l.76-.99,4.76-6.2,6.37-6.44.95-.96-1.19-.63c-1.03-.55-3.12-5.38-4.01-7.44-1.07-2.47-1.29-2.94-1.69-3.22-.53-.37-1.4-.58-2.88-.93-1.53-.36-3.85-.91-4.54-1.66l-.07-.08-.09-.06-7.2-5.06-1.27-.89-.29,1.53c-1.98,10.57,1.6,22.56,9.6,32.07l.8.95M404.9,683.37c-2.08,0-4.03-.23-5.8-.69l-.75-.19-.38.67c-2.28,4.05-3.7,10.16-1.45,14,.9,1.54,2.82,3.39,6.82,3.39h.07c.61,0,1.18-.15,1.67-.28.39-.1.77-.2,1.07-.2h.05c2.38.09,3.69,1.91,3.75,3.66.06,1.76-1.16,3.96-4.8,4.36-.72.08-1.42.12-2.09.12-5.68,0-9.16-2.82-13.18-6.09-.83-.67-1.68-1.37-2.59-2.06-2.31-1.77-4.85-2.64-7.78-2.64-4.47,0-9.04,2.09-13.08,3.93-1.09.5-2.11.96-3.11,1.38l-.79.33.21.83c4.05,16,19.27,33.12,35.45,33.12,4.62,0,9.11-1.36,13.33-4.04,6.58-4.17,12.81-14.94,12.81-22.15v-33.19l-1.19.24c-1.55.31-2.85,1.1-4.1,1.87-.85.52-1.73,1.06-2.68,1.43-3.61,1.43-7.69,2.21-11.48,2.21M407.61,497.33c-9.28,0-19.29,4.09-26.58,11.53-1.86,1.89-5.94,8.69-6.92,9.43-1.02.76-7.51,2.16-9.53,2.97-16.31,6.53-26.02,20.31-30.41,36.9-.34,1.28-1.03,6.71-1.29,7.12-.2.32-5.08,2.8-6.41,3.93-5.49,4.65-10.68,12.61-10.76,20.02-.02,2.03,1.59,6.52,1.2,7.89-.21.74-3.09,4.07-3.85,5.32-4.98,8.14-7.88,17.43-7,27.12.23,2.53,1.93,6.24,1.93,8.18,0,2.07-2.31,7.02-2.77,9.74-2.43,14.16,2.37,26.23,10.27,37.57,1,1.43,3.37,3.58,3.93,4.73,1.07,2.23,1.38,7.99,2.38,11.09,5.64,17.58,22.14,33.86,41.29,33.86.79,0,1.58-.03,2.37-.08,1.48-.1,3.55-.98,4.98-.98.24,0,.46.02.66.08.56.16,6.52,5.27,8.2,6.25,6.26,3.68,12.69,5.37,18.81,5.37,17.15,0,31.96-13.19,34.39-32.62l.03-192.81c-1.93-15.61-12.79-22.59-24.9-22.59h0ZM389.18,571.7c-.12,0-.23-.12-.47-.39-.69-.8-1.3-2.17-2.13-3.07-3.08-3.34-6.36-6.09-10.29-8.4,1.31-2.46,3.75-5.82,3.82-8.68.06-2.12-2.15-5.85-2.43-8.64-1.6-15.85,13.43-36.27,29.07-36.27,3.73,0,7.49,1.16,11.07,3.82,2.05,1.52,5.05,5.89,5.05,8.41v37.74c-2.46-.67-4.98-1.05-7.53-1.05-.62,0-1.24.02-1.86.07-2.34.17-4.13,1.18-5.73,1.18-1.08,0-2.07-.46-3.07-1.97-2.61-3.91-2.72-9.25.39-12.91,1.92-2.25,5.44-1.9,5.8-5.76.36-3.85-1.47-5.32-3.88-5.32-2.06,0-4.56,1.08-6.49,2.67-9.04,7.46-8.82,19.27-2.7,28.55-2.83,1.58-6.2,8.4-8.09,9.7-.28.19-.42.31-.54.31h0ZM369.51,529.79c-.81,3.79-1.62,7.91-1.46,11.8.11,2.63,2.14,8.55,1.94,10.04-.87,6.42-12.98,3.89-10.83,11.83,1.23,4.56,6.79,2.86,10.45,3.97,4.88,1.47,14.3,10.54,14.79,15.54.15,1.46-1.84,7.56-2.26,9.71-.34,1.74-.77,8.39-1.32,9.25-.6.92-8.83,2.11-10.14,6.21-.8,2.48.76,5.84,3.42,6.25.38.06.73.09,1.07.09,2.83,0,4.01-1.98,6.73-2.81,1.29-.39,2.65-.58,4.01-.58,2.93,0,5.89.86,8.27,2.45,1.61,1.07,3.53,4.02,5.1,4.51.76.24,1.49.35,2.17.35,3.49,0,5.66-2.94,4.32-6.84-.63-1.85-5.3-5.31-7.11-6.35-2.65-1.54-5.55-2.05-7.95-3.59.64-14.48,8.08-36.85,25.3-36.85.88,0,1.79.06,2.72.18.71.09,4.13,1.14,4.13,1.64,0,7.73-.35,15.89,0,23.56,0,.2,1.04.73.09.73-.09,0-.19,0-.32-.01-2.01-2.42-9.03-6.02-13.91-6.02-2.79,0-4.88,1.18-4.93,4.43-.08,4.72,3.97,4.32,6.84,5.42,8.95,3.41,12.15,10.84,12.74,19.96.76,11.88,1.04,32.09-.03,43.76-1.01,11.04-9.49,16.56-18.37,16.56-6.97,0-14.19-3.4-18.26-10.21-2-3.35-2.39-9.42-6.81-9.43-.4,0-.83.05-1.3.16-6.77,1.53-2.07,10.7.12,14.37,2.7,4.51,6.55,7.93,10.93,10.75-1.13,3.23-2.36,6.37-2.85,9.78-2.41-1.12-5.13-1.54-7.82-1.54-.99,0-1.97.06-2.93.16-7.21.76-12.11,5.81-18.97,5.81-1.51,0-3.12-.25-4.87-.84-2.22-.75-6.16-4.75-9.22-4.75-1.4,0-2.62.84-3.4,3.21-2.27,6.88,9.74,10.82,14.78,11.88,1.53,7.7,5.22,14.62,9.36,21.16-.23,0-.46.01-.69.01-15.29,0-28.72-15.16-32.61-28.97-.36-1.29-1.3-4.31-1.25-5.44.05-1.19,4.06-6.99,5.04-8.33,1.11-1.52,6.16-7.92,7.42-8.48.16-.07.34-.1.54-.1,1.57,0,4.28,1.99,5.71,2.51,2.42.89,7.31,2.31,11.43,2.31,3.49,0,6.43-1.02,6.82-4.26.74-6.14-6.15-5.12-9.71-5.62-15.06-2.13-22.18-17.9-18.03-31.7.95-3.15,3.97-6.28.86-9.3-1.26-1.22-2.41-1.75-3.46-1.75-5.78,0-8.47,15.88-8.35,19.81-16-8.21-14.2-29.44-4.26-41.87,3.04,1.53,6.5,1.38,9.58,2.42,7.1,2.4,14.1,15.53,19.46,21.41,8.98,9.84,20.79,17.55,33.2,17.55,5.72,0,11.57-1.64,17.33-5.46,3.4-2.26,9.6-6.77,5.92-11.33-1.03-1.27-2.09-1.77-3.14-1.77-2.88,0-5.73,3.65-7.88,5.11-4.11,2.79-8.25,3.97-12.29,3.97-11.16,0-21.59-8.99-28.82-17.7-1.47-1.77-7.87-9.86-7.71-11.5.3-3.06,8.33-9.62,11.21-10.94,4.46-2.05,10.46-1.21,9.25-8.1-.31-1.78-1.7-4.43-2.59-6.07-4.9-9.07-13.68-16.54-24.12-17.95,2.7-14.92,11.98-29.48,26.93-34.13h0ZM341.39,600.44c-5.12-4.82-15.37-1.6-16.07-10.38-.44-5.49,6.64-15.36,11.85-16.41.97-.2,1.92-.29,2.86-.29,7.87,0,14.58,6.51,18.41,12.93-6.93,3.24-12.78,7.76-17.05,14.15h0ZM324.08,680.27c-7.12-8.47-11.47-20.11-9.38-31.25l7.2,5.06c1.46,1.59,6.54,2.02,7.59,2.74.58.4,3.77,9.63,5.8,10.71l-6.41,6.48-4.8,6.25h0ZM404.9,684.37c4.07,0,8.26-.87,11.85-2.28,2.44-.96,4.22-2.78,6.61-3.25v31.97c0,7.17-6.32,17.49-12.35,21.31-4.26,2.7-8.59,3.88-12.8,3.88-16.1,0-30.64-17.21-34.48-32.37,4.83-2.03,10.42-5.23,15.8-5.23,2.46,0,4.88.67,7.17,2.43,5.37,4.13,9.14,8.36,16.38,8.36.7,0,1.43-.04,2.2-.12,7.96-.86,6.89-9.78.98-10.01-.03,0-.06,0-.09,0-.88,0-1.79.48-2.75.48-.02,0-.04,0-.06,0-9.11,0-7.73-10.16-4.5-15.9,1.91.5,3.97.73,6.05.73h0Z"/>
      </g>
      <g>
        <path class="cls-13" d="M566.61,637.73c-.02-1.75,1.72-5.63,1.94-8.19.78-9.27-1.63-18.42-6.34-26.34-.75-1.26-4.52-5.94-4.64-6.45-.18-.75,1.17-4.32,1.31-5.73.87-8.82-4.69-16.95-11.23-22.31-1.18-.96-5.51-3.28-5.78-3.84-.55-1.12-.86-5.07-1.34-6.83-4.5-16.43-14.3-30.34-30.51-36.8-2.02-.81-8.61-2.28-9.53-2.97-.73-.55-2.45-4.11-3.38-5.28-7.41-9.37-18.69-16.59-31.07-15.76-12.92.86-23.1,9.45-23.93,22.7-.19,48.88.22,97.77.02,146.66-.07,15.27-2.04,31.77.11,46.96,3.88,27.39,32.21,40.87,55.51,25,1.43-.97,5.21-4.66,6.26-4.84,1.44-.25,3.59.78,5.18.88,23.23,1.39,40.18-18.35,45.21-39.39.41-1.69.22-4.25.96-5.77.46-.95,3.33-3.56,4.26-4.87,7.98-11.31,12.25-23.99,9.68-37.97-.44-2.36-2.68-7.31-2.69-8.86ZM451.72,518.49c.93-6.55,7.53-11.1,13.76-11.72,18.21-1.8,32.93,18.86,31.43,35.75-.26,2.95-2.48,6.69-2.42,8.64.08,2.84,2.86,6.07,3.9,8.65-5.59,2.89-9.46,7.63-13.48,12.29-1.9-3.84-4.94-8.06-8.66-10.11,7.85-9.16,6.58-24.94-4.65-30.67-4.14-2.11-8.32-.58-7.87,4.48.31,3.46,3.55,3.35,5.52,5.56,4.32,4.83,2.86,10.89-1.01,15.39-5.41-1.89-11-2-16.51-.52v-37.74ZM463.68,732.02c-8.5-5.44-11.88-14.81-12.46-24.56-.45-7.48-.53-18.58,0-26,.07-.93.28-1.74.51-2.62,1.89.88,3.5,2.12,5.44,2.97,5.73,2.5,12.28,3.13,18.39,2,3.19,3.9,4.61,13.83-1.7,15.48-3.19.83-8.88-1.3-9.99,2.99-2.02,7.81,8.22,7.34,13.13,5.92,6.1-1.78,7.71-5.34,12.07-8.12,7.16-4.57,14.93,1.26,21.78,3.32-4.42,19.49-26.49,41.86-47.16,28.64ZM544.04,697.35c-4.05,13.65-17.93,28.75-33.18,28.11,1.92-3.29,4.12-6.42,5.7-9.92.84-1.86,3.57-10.71,4.14-11.24.39-.37,6.03-1.65,7.65-2.45,3.77-1.88,11.05-8.01,4.97-11.58-4.81-2.82-6.76,2.28-10.93,3.69-9.69,3.27-15.04-4.05-23.84-4.98-3.8-.4-7.09.31-10.78.71l-2.82-9.13c2.96-2.13,5.74-3.97,8.12-6.79,3.04-3.61,11.07-16.89,2.43-18.31-4.93-.81-5.78,6.5-7.98,9.86-10.19,15.51-34.84,12.39-36.28-8.35-.72-10.43.23-21.35.52-31.73.29-10.46-2.16-20.89,7.43-28.15,3.85-2.91,11.95-2.47,11.62-7.87-.44-7.19-9.56-3.96-13.41-2.09-2.22,1.08-3.88,2.87-6.15,3.7l.46-24.19c21.12-9.03,31.94,18.92,32.26,35.46-3.93.89-7.69,2.56-10.83,5.1-3.19,2.58-7.61,7.82-2.14,10.77,4.13,2.22,6.22-1.98,8.94-3.96,3.8-2.77,8.62-3.68,13.14-2.24,2.07.66,3.84,2.59,6,2.69,3.35.16,5.47-2.24,5.04-5.54-.49-3.76-7.11-6.25-10.54-6.55-.19-2.33-.26-5.02-.63-7.3-.41-2.59-2.84-10.04-2.74-11.64.07-1.16,2.81-5.77,3.64-6.96,2.68-3.86,7.25-8,11.82-9.33,3.31-.96,8.86.6,9.91-4.04,1.44-6.36-5.39-5.33-8.52-8.1-4.43-3.92-.69-8.69-.49-13.89.14-3.72-.7-7.71-1.46-11.32,14.91,4.43,24.3,19.35,26.91,34.11-8.14,1.19-14.51,5.68-19.71,11.79-3.08,3.61-11.8,15.79-3.75,18.21,5.48,1.65,6.89-6.23,9.23-9.85,3.27-5.06,10.51-10.91,16.81-10.81,8.15.13,19.7,14.71,12.66,21.77-1.8,1.8-6.99,2.24-9.78,3.44-9.68,4.19-14.7,15.22-21.54,22.69-9.69,10.58-23.76,20.41-38.08,11.63-3.39-2.08-7.01-8.05-11.32-4.43-5.13,4.32,2.43,10.04,5.92,12.23,18.74,11.77,37.85,1.16,50.91-13.44,4.64-5.18,10.85-16.27,16.34-19.24,3.8-2.06,7.71-1.64,11.32-3.96,10.86,12.57,12.19,34.04-4.09,42.68-.04-4.92-.75-9.95-2.52-14.55-1.42-3.69-4.19-7.73-8.53-4.43-3.67,2.79-.72,6.03.12,8.99,3.77,13.23-.78,28.62-15.42,31.96-3.99.91-12.35-.51-12.09,5.63.32,7.39,13.5,4.18,17.89,2.58,1.68-.61,5.21-3.17,6.58-2.55.45.2,3.5,3.42,4.11,4.1,1.71,1.9,8.25,10.69,8.38,12.77.09,1.33-.98,4.77-1.41,6.23ZM560.38,659.84c-.78,6.93-5.71,15.43-9.86,20.91-3.01-4.86-6.79-9.19-10.77-13.29,1.73-1.55,4.64-9.76,5.74-10.49.91-.6,4.74-1.45,6.39-2.27,2.98-1.48,5.17-3.72,7.78-5.68.15-.05.72,1.13.72,1.2,0,2.97.32,6.79,0,9.62Z"/>
        <path class="cls-7" d="M467.99,498.18c10.26,0,20.59,5.63,28.35,15.44.36.45.91,1.41,1.44,2.34.96,1.67,1.57,2.71,2.12,3.12.61.46,2.15.91,5.52,1.84,1.68.46,3.42.94,4.24,1.26,18.57,7.41,26.52,23.74,29.91,36.14.19.7.37,1.86.54,2.98.31,2.02.52,3.3.87,4.02.25.52.9.95,3.36,2.44,1.04.63,2.22,1.35,2.68,1.73,7.52,6.17,11.58,14.18,10.87,21.44-.05.54-.36,1.63-.64,2.59-.57,1.99-.79,2.86-.65,3.47.1.41.44.91,2.46,3.58.92,1.22,1.97,2.61,2.29,3.15,4.79,8.07,6.94,16.97,6.2,25.75-.1,1.18-.57,2.73-1.02,4.22-.5,1.63-.93,3.04-.92,4.07,0,.93.52,2.44,1.37,4.81.56,1.58,1.15,3.2,1.33,4.23,2.3,12.48-.9,24.99-9.52,37.21-.39.55-1.21,1.41-2.01,2.25-1.25,1.31-2.03,2.15-2.33,2.76-.53,1.09-.65,2.48-.76,3.83-.07.8-.13,1.55-.27,2.15-4.46,18.64-19.48,38.69-41.94,38.69-.74,0-1.5-.02-2.24-.07-.57-.03-1.26-.22-2-.42-.92-.25-1.87-.5-2.75-.5-.24,0-.46.02-.67.06-.83.15-2.04,1.12-4.4,3.16-.9.78-1.75,1.51-2.24,1.84-6.34,4.32-13.42,6.6-20.46,6.6-8.04,0-15.79-2.97-21.84-8.37-6.34-5.67-10.37-13.46-11.66-22.54-1.46-10.34-.99-21.42-.54-32.14.21-4.85.42-9.87.44-14.68.11-24.72.05-49.85,0-74.15-.05-23.76-.11-48.32-.01-72.48.77-12.13,10.01-20.87,23-21.73.62-.04,1.25-.06,1.87-.06M450.72,557.54l1.26-.34c2.43-.65,4.87-.98,7.26-.98,2.94,0,5.85.5,8.66,1.48l.64.23.44-.52c3.78-4.39,6.02-11.09.99-16.71-.84-.93-1.84-1.5-2.73-1.99-1.57-.87-2.39-1.4-2.54-2.99-.13-1.43.16-2.58.84-3.33.74-.81,1.78-.98,2.52-.98.96,0,2.01.28,3.05.81,4.57,2.33,7.67,6.57,8.73,11.94,1.2,6.06-.48,12.64-4.38,17.19l-.8.93,1.08.59c3.01,1.65,6.02,5.18,8.25,9.67l.67,1.35.98-1.14.73-.84c3.79-4.41,7.38-8.58,12.46-11.21l.81-.42-.34-.84c-.4-.98-1-2-1.63-3.07-1.06-1.8-2.16-3.66-2.2-5.23-.02-.76.5-2.14,1-3.48.6-1.6,1.28-3.41,1.42-5.05.82-9.2-2.97-19.61-9.89-27.17-5.77-6.31-12.98-9.78-20.3-9.78-.77,0-1.55.04-2.32.11-6.33.63-13.61,5.24-14.65,12.57v.07s0,.07,0,.07v39.05M499.38,613.46c-.08,0-.17,0-.26,0-1.01-.05-2.01-.65-3.07-1.3-.84-.51-1.71-1.04-2.68-1.35-1.5-.48-3.06-.72-4.64-.72-3.35,0-6.6,1.07-9.39,3.11-.75.54-1.43,1.23-2.1,1.88-1.31,1.3-2.54,2.52-4,2.52-.56,0-1.14-.17-1.78-.51-1.29-.69-1.96-1.51-2.05-2.51-.2-2.12,2.22-4.88,4.34-6.6,2.89-2.34,6.4-3.98,10.43-4.9l.79-.18-.02-.81c-.31-16.01-9.29-38.19-25.33-38.19-2.67,0-5.47.62-8.32,1.83l-.59.25v.65s-.47,24.19-.47,24.19l-.03,1.46,1.37-.5c1.39-.51,2.54-1.32,3.66-2.12.86-.61,1.67-1.18,2.58-1.63,1.09-.53,4.89-2.27,8.05-2.27,2.57,0,3.78,1.08,3.92,3.52.16,2.57-2.09,3.43-5.78,4.61-1.94.62-3.94,1.26-5.45,2.4-8.21,6.21-8.03,14.81-7.86,23.14.04,1.89.08,3.85.03,5.78-.08,2.88-.22,5.87-.35,8.75-.34,7.62-.7,15.49-.17,23.08.91,13.15,10.46,19.04,19.52,19.04,7.44,0,14.39-3.82,18.59-10.21.69-1.05,1.22-2.36,1.78-3.75,1.14-2.81,2.32-5.72,4.63-5.72.18,0,.37.02.57.05,1.49.24,2.41.89,2.81,1.96,1.42,3.85-3.53,11.98-5.84,14.71-2.04,2.42-4.43,4.12-6.96,5.93l-.98.7-.58.42.21.69,2.82,9.13.24.79.82-.09c.9-.1,1.78-.21,2.64-.32,1.95-.26,3.8-.5,5.73-.5.76,0,1.48.04,2.2.11,3.26.34,6.09,1.64,8.84,2.89,3.15,1.44,6.41,2.93,10.24,2.93,1.72,0,3.42-.29,5.19-.89,1.62-.55,2.92-1.58,4.07-2.49,1.34-1.06,2.5-1.98,3.84-1.98.68,0,1.4.23,2.2.7,1.27.75,1.88,1.6,1.84,2.62-.09,2.55-3.98,5.82-6.75,7.21-.79.39-2.85.97-4.5,1.43-2.48.7-3.05.87-3.37,1.18-.43.4-.86,1.47-2.65,6.73-.69,2.01-1.4,4.1-1.73,4.84-1.07,2.36-2.47,4.62-3.82,6.8-.61.98-1.24,2-1.84,3.02l-.84,1.43,1.66.07c.32.01.65.02.97.02,15.23,0,29.1-14.97,33.21-28.85l.1-.33c.7-2.34,1.44-4.94,1.35-6.25-.17-2.63-7.33-11.92-8.64-13.38-.04-.04-3.64-3.98-4.44-4.34-.27-.12-.58-.18-.92-.18-1.28,0-2.92.89-4.51,1.76-.74.4-1.44.78-1.9.95-2.06.75-6.6,2.03-10.52,2.03-5.86,0-5.98-2.79-6.02-3.71-.15-3.41,2.93-3.88,7.64-4.2,1.35-.09,2.62-.18,3.67-.42,6.02-1.38,10.82-4.83,13.87-9.99,3.76-6.36,4.62-15.04,2.29-23.22-.22-.77-.56-1.53-.88-2.26-1.13-2.55-1.67-4.08.4-5.65.89-.67,1.71-1.02,2.46-1.02,2.26,0,3.8,3.14,4.53,5.01,1.59,4.12,2.41,8.89,2.46,14.2v1.65s1.47-.77,1.47-.77c6.66-3.53,10.91-9.32,12.3-16.75,1.74-9.27-1.3-19.79-7.93-27.46l-.57-.66-.73.47c-1.76,1.13-3.63,1.56-5.6,2.02-1.84.43-3.75.87-5.66,1.9-3.81,2.06-7.69,7.46-11.45,12.69-1.86,2.58-3.61,5.02-5.16,6.76-6.06,6.78-18.46,18.15-33.38,18.15-5.62,0-11.09-1.65-16.26-4.89-3.35-2.1-7-5.28-7.18-7.89-.07-1,.38-1.89,1.37-2.72.73-.61,1.43-.91,2.15-.91,1.67,0,3.41,1.57,5.1,3.09.99.89,1.92,1.73,2.9,2.33,3.83,2.35,7.89,3.54,12.04,3.54,8.79,0,17.97-5.16,27.3-15.35,2.19-2.39,4.22-5.17,6.18-7.86,4.24-5.81,8.63-11.83,15.02-14.59.99-.43,2.34-.76,3.77-1.11,2.47-.61,5.01-1.23,6.32-2.54,2.72-2.72,3.22-6.68,1.41-11.15-2.67-6.59-9.43-12.24-14.76-12.32h-.18c-6.39,0-13.91,5.73-17.49,11.27-.64.98-1.18,2.2-1.76,3.49-1.35,3.01-2.74,6.13-5.21,6.13-.35,0-.74-.06-1.14-.18-1.34-.4-2.14-1.11-2.45-2.17-1.06-3.6,3.41-10.6,6.67-14.43,5.67-6.65,11.91-10.4,19.1-11.45l1.02-.15-.18-1.01c-2.3-12.99-10.91-29.93-27.61-34.9l-1.61-.48.34,1.64.02.08c.73,3.48,1.55,7.43,1.42,11-.06,1.53-.46,3.08-.84,4.57-.89,3.45-1.82,7.02,1.67,10.11,1.19,1.05,2.74,1.59,4.24,2.11,3.12,1.08,4.71,1.8,3.98,5.02-.54,2.38-2.51,2.66-5.7,2.85-1.2.07-2.44.14-3.52.45-5.2,1.51-9.91,6.18-12.37,9.72-.36.52-3.71,5.8-3.81,7.47-.06,1.01.53,3.26,1.51,6.85.53,1.95,1.08,3.96,1.25,5.01.25,1.55.36,3.32.47,5.04.05.75.09,1.49.15,2.19l.07.84.84.07c3.17.28,9.23,2.65,9.63,5.68.17,1.28-.12,2.43-.82,3.23-.68.78-1.69,1.19-2.92,1.19M550.44,682.52l.88-1.16c4.34-5.73,9.26-14.36,10.06-21.4.22-1.98.15-4.36.07-6.66-.03-1.09-.07-2.12-.07-3.07,0-.16,0-.33-.41-1.1-.25-.46-.59-1.1-1.3-1.1h-.17s-.15.05-.15.05l-.16.05-.13.1c-.82.62-1.6,1.26-2.36,1.88-1.7,1.4-3.31,2.73-5.27,3.7-.74.37-2.09.78-3.28,1.14-1.63.5-2.66.82-3.21,1.19-.68.45-1.3,1.69-2.76,4.85-.98,2.12-2.32,5.03-3.09,5.73l-.78.69.73.75c4.78,4.92,8.06,8.97,10.63,13.12l.77,1.24M476.68,737c16.49,0,31.48-17.27,35.14-33.39l.21-.91-.89-.27c-1.66-.5-3.37-1.22-5.18-1.99-3.56-1.51-7.25-3.07-11-3.07h0c-2.36,0-4.46.61-6.42,1.86-1.63,1.04-2.89,2.18-4.1,3.28-2.07,1.88-4.02,3.65-7.72,4.73-1.71.5-3.83.8-5.67.8-2.81,0-4.88-.66-5.8-1.86-.67-.86-.8-2.09-.4-3.65.39-1.52,1.49-2.06,4.2-2.06.42,0,.84.01,1.26.02.43.01.86.02,1.27.02.74,0,1.69-.03,2.55-.25,2.27-.59,3.88-2.16,4.65-4.54,1.38-4.23-.19-9.8-2.43-12.54l-.38-.46-.58.11c-1.88.35-3.81.53-5.74.53-4.2,0-8.37-.85-12.07-2.46-.97-.42-1.85-.95-2.78-1.5-.84-.5-1.7-1.02-2.64-1.45l-1.08-.5-.3,1.16c-.23.87-.47,1.77-.54,2.8-.56,7.81-.42,19.06,0,26.14.69,11.62,5.16,20.38,12.92,25.35,4.29,2.74,8.84,4.13,13.53,4.13M467.99,497.18c-.64,0-1.29.02-1.94.06-12.92.86-23.1,9.45-23.93,22.7-.19,48.88.22,97.77.02,146.66-.07,15.27-2.04,31.77.11,46.96,2.74,19.36,17.71,31.78,34.48,31.78,6.95,0,14.2-2.13,21.02-6.77,1.43-.97,5.21-4.66,6.26-4.84.16-.03.32-.04.49-.04,1.41,0,3.27.83,4.69.92.77.05,1.54.07,2.3.07,22.05,0,38.04-19.12,42.91-39.46.41-1.69.22-4.25.96-5.77.46-.95,3.33-3.56,4.26-4.87,7.98-11.31,12.25-23.99,9.68-37.97-.44-2.36-2.68-7.31-2.69-8.86-.02-1.75,1.72-5.63,1.94-8.19.78-9.27-1.63-18.42-6.34-26.34-.75-1.26-4.52-5.94-4.64-6.45-.18-.75,1.17-4.32,1.31-5.73.87-8.82-4.69-16.95-11.23-22.31-1.18-.96-5.51-3.28-5.78-3.84-.55-1.12-.86-5.07-1.34-6.83-4.5-16.43-14.3-30.34-30.51-36.8-2.02-.81-8.61-2.28-9.53-2.97-.73-.55-2.45-4.11-3.38-5.28-7.02-8.88-17.52-15.82-29.13-15.82h0ZM451.72,556.23v-37.74c.93-6.55,7.53-11.1,13.76-11.72.75-.07,1.49-.11,2.22-.11,17.16,0,30.64,19.66,29.2,35.86-.26,2.95-2.48,6.69-2.42,8.64.08,2.84,2.86,6.07,3.9,8.65-5.59,2.89-9.46,7.63-13.48,12.29-1.9-3.84-4.94-8.06-8.66-10.11,7.85-9.16,6.58-24.94-4.65-30.67-1.2-.61-2.41-.92-3.51-.92-2.67,0-4.68,1.82-4.36,5.4.31,3.46,3.55,3.35,5.52,5.56,4.32,4.83,2.86,10.89-1.01,15.39-2.96-1.03-5.97-1.54-8.99-1.54-2.51,0-5.02.35-7.52,1.02h0ZM499.38,614.46c3.17,0,5.15-2.35,4.73-5.54-.49-3.76-7.11-6.25-10.54-6.55-.19-2.33-.26-5.02-.63-7.3-.41-2.59-2.84-10.04-2.74-11.64.07-1.16,2.81-5.77,3.64-6.96,2.68-3.86,7.25-8,11.82-9.33,3.31-.96,8.86.6,9.91-4.04,1.44-6.36-5.39-5.33-8.52-8.1-4.43-3.92-.69-8.69-.49-13.89.14-3.72-.7-7.71-1.46-11.32,14.91,4.43,24.3,19.35,26.91,34.11-8.14,1.19-14.51,5.68-19.71,11.79-3.08,3.61-11.8,15.79-3.75,18.21.51.15.98.22,1.42.22,4.32,0,5.68-6.79,7.8-10.07,3.24-5.01,10.38-10.81,16.65-10.81.05,0,.11,0,.16,0,8.15.13,19.7,14.71,12.66,21.77-1.8,1.8-6.99,2.24-9.78,3.44-9.68,4.19-14.7,15.22-21.54,22.69-7.06,7.71-16.45,15.02-26.56,15.02-3.77,0-7.63-1.01-11.52-3.4-2.63-1.61-5.4-5.57-8.52-5.57-.9,0-1.83.33-2.8,1.14-5.13,4.32,2.43,10.04,5.92,12.23,5.62,3.53,11.28,5.05,16.79,5.05,12.87,0,24.98-8.26,34.12-18.48,4.64-5.18,10.85-16.27,16.34-19.24,3.8-2.06,7.71-1.64,11.32-3.96,10.86,12.57,12.19,34.04-4.09,42.68-.04-4.92-.75-9.95-2.52-14.55-1.05-2.73-2.84-5.65-5.46-5.65-.92,0-1.94.36-3.07,1.22-3.67,2.79-.72,6.03.12,8.99,3.77,13.23-.78,28.62-15.42,31.96-3.99.91-12.35-.51-12.09,5.63.16,3.57,3.31,4.67,7.02,4.67,3.98,0,8.6-1.26,10.87-2.09,1.5-.55,4.48-2.65,6.07-2.65.19,0,.36.03.51.1.45.2,3.5,3.42,4.11,4.1,1.71,1.9,8.25,10.69,8.38,12.77.09,1.33-.98,4.77-1.41,6.23-3.97,13.38-17.37,28.13-32.25,28.13-.31,0-.62,0-.93-.02,1.92-3.29,4.12-6.42,5.7-9.92.84-1.86,3.57-10.71,4.14-11.24.39-.37,6.03-1.65,7.65-2.45,3.77-1.88,11.05-8.01,4.97-11.58-1.01-.59-1.9-.84-2.7-.84-3.02,0-4.93,3.41-8.23,4.53-1.75.59-3.36.84-4.87.84-6.86,0-11.76-5.05-18.97-5.81-.79-.08-1.55-.12-2.3-.12-2.88,0-5.55.51-8.48.82l-2.82-9.13c2.96-2.13,5.74-3.97,8.12-6.79,3.04-3.61,11.07-16.89,2.43-18.31-.26-.04-.5-.06-.73-.06-4.29,0-5.16,6.74-7.25,9.92-4.29,6.53-11.15,9.76-17.75,9.76-9.08,0-17.69-6.1-18.53-18.11-.72-10.43.23-21.35.52-31.73.29-10.46-2.16-20.89,7.43-28.15,3.85-2.91,11.95-2.47,11.62-7.87-.21-3.38-2.33-4.45-4.92-4.45-2.93,0-6.45,1.37-8.49,2.37-2.22,1.08-3.88,2.87-6.15,3.7l.46-24.19c2.83-1.21,5.47-1.75,7.92-1.75,15.9,0,24.06,22.89,24.33,37.21-3.93.89-7.69,2.56-10.83,5.1-3.19,2.58-7.61,7.82-2.14,10.77.82.44,1.57.63,2.25.63,2.74,0,4.51-3.01,6.69-4.6,2.6-1.89,5.67-2.92,8.8-2.92,1.45,0,2.91.22,4.33.67,2.07.66,3.84,2.59,6,2.69.1,0,.2,0,.3,0h0ZM550.52,680.75c-3.01-4.86-6.79-9.19-10.77-13.29,1.73-1.55,4.64-9.76,5.74-10.49.91-.6,4.74-1.45,6.39-2.27,2.98-1.48,5.17-3.72,7.78-5.68,0,0,0,0,0,0,.16,0,.71,1.13.71,1.2,0,2.97.32,6.79,0,9.62-.78,6.93-5.71,15.43-9.86,20.91h0ZM476.68,736c-4.28,0-8.67-1.21-12.99-3.97-8.5-5.44-11.88-14.81-12.46-24.56-.45-7.48-.53-18.58,0-26,.07-.93.28-1.74.51-2.62,1.89.88,3.5,2.12,5.44,2.97,3.91,1.7,8.2,2.54,12.46,2.54,1.99,0,3.98-.18,5.92-.55,3.19,3.9,4.61,13.83-1.7,15.48-.67.18-1.46.22-2.29.22s-1.69-.04-2.53-.04c-2.34,0-4.52.33-5.16,2.81-1.35,5.24,2.81,6.75,7.17,6.75,2.14,0,4.34-.37,5.95-.84,6.1-1.78,7.71-5.34,12.07-8.12,1.93-1.23,3.9-1.71,5.88-1.71,5.39,0,10.89,3.52,15.9,5.02-3.5,15.41-18.02,32.61-34.17,32.61h0Z"/>
      </g>
      <g>
        <path class="cls-5" d="M322.78,450.64h225.1c26.06,0,47.26-21.2,47.26-47.26v-167.96c0-26.06-21.2-47.26-47.26-47.26h-225.1c-26.06,0-47.26,21.2-47.26,47.26v167.96c0,26.06,21.2,47.26,47.26,47.26ZM309.44,235.43c0-7.36,5.99-13.35,13.35-13.35h225.1c7.36,0,13.35,5.99,13.35,13.35v167.96c0,7.36-5.99,13.35-13.35,13.35h-225.1c-7.36,0-13.35-5.99-13.35-13.35v-167.96Z"/>
        <path class="cls-8" d="M547.88,189.17c25.51,0,46.26,20.75,46.26,46.26v167.96c0,25.51-20.75,46.26-46.26,46.26h-225.1c-25.51,0-46.26-20.75-46.26-46.26v-167.96c0-25.51,20.75-46.26,46.26-46.26h225.1M322.78,417.73h225.1c7.91,0,14.35-6.44,14.35-14.35v-167.96c0-7.91-6.44-14.35-14.35-14.35h-225.1c-7.91,0-14.35,6.44-14.35,14.35v167.96c0,7.91,6.44,14.35,14.35,14.35M547.88,188.17h-225.1c-26.06,0-47.26,21.2-47.26,47.26v167.96c0,26.06,21.2,47.26,47.26,47.26h225.1c26.06,0,47.26-21.2,47.26-47.26v-167.96c0-26.06-21.2-47.26-47.26-47.26h0ZM322.78,416.73c-7.36,0-13.35-5.99-13.35-13.35v-167.96c0-7.36,5.99-13.35,13.35-13.35h225.1c7.36,0,13.35,5.99,13.35,13.35v167.96c0,7.36-5.99,13.35-13.35,13.35h-225.1Z"/>
      </g>
      <g>
        <path class="cls-1" d="M854.23,419.19l-106.95-120.44c-6.45-7.27-17.58-7.93-24.85-1.47-7.27,6.45-7.93,17.58-1.47,24.85l35.45,39.92c0,4.76-.02,9.35-.04,13.77-.17,47.23-.27,75.74,9.44,99.46,10.07,24.62,29.61,40.04,57.67,55.23v223.6c0,18.43-19.07,23.35-30.34,23.35s-30.63-4.92-30.63-23.35v-121.44c0-9.26,0-17.26-1.95-24.78-2.72-10.45-8.94-18.32-18.49-23.41-12.73-6.78-31.45-9.33-74.2-9.7V204.26c0-45.63-37.12-82.75-82.75-82.75h-295.22c-45.63,0-82.75,37.12-82.75,82.75v528.11c0,23.38,9.76,44.5,25.4,59.57h-26.61c-22.39,0-40.6,14.39-40.6,32.08v46.38c0,17.69,18.21,32.08,40.6,32.08h463.14c22.39,0,40.6-14.39,40.6-32.08v-46.38c0-17.69-18.21-32.08-40.6-32.08h-26.61c15.64-15.06,25.4-36.19,25.4-59.57v-122.39c19.98.18,33.58.84,43.22,2.08,11.68,1.51,14.7,3.56,15.16,3.94,1.06,2.14,1.06,10.52,1.05,16.66v121.45c0,18.1,7.84,33.99,22.08,44.74,11.8,8.91,27.34,13.81,43.76,13.81s31.88-4.9,43.61-13.8c14.14-10.73,21.93-26.63,21.93-44.75v-323.23c0-4.31-1.58-8.47-4.44-11.69ZM669.06,815.12c6.21,0,11.26,3.99,11.26,8.9v46.38c0,4.91-5.05,8.9-11.26,8.9H205.92c-6.21,0-11.26-3.99-11.26-8.9v-46.38c0-4.91,5.05-8.9,11.26-8.9h463.14ZM241.04,204.26c0-26.93,21.91-48.84,48.84-48.84h295.22c26.93,0,48.84,21.91,48.84,48.84v528.11c0,26.93-21.91,48.84-48.84,48.84h-295.22c-26.93,0-48.84-21.91-48.84-48.84V204.26ZM823.47,489.58c-13.62-9.11-20.91-17.42-25.09-27.62-5.52-13.5-6.67-32.27-6.83-60.32l31.92,35.94v52.01Z"/>
        <path class="cls-4" d="M585.11,122.51c45.08,0,81.75,36.67,81.75,81.75v371.51h.99c42.37.38,60.98,2.79,73.74,9.59,9.3,4.95,15.35,12.62,17.99,22.78,1.92,7.4,1.92,15.34,1.92,24.53v121.44c0,19.22,19.88,24.35,31.63,24.35s31.34-5.13,31.34-24.35v-224.2l-.52-.28c-31.78-17.2-48.35-33.05-57.22-54.73-9.63-23.54-9.53-51.97-9.36-99.08.02-4.42.03-9,.04-13.77v-.38s-.25-.28-.25-.28l-35.45-39.92c-6.08-6.84-5.45-17.36,1.39-23.44,3.04-2.7,6.95-4.19,11.02-4.19,4.74,0,9.27,2.03,12.42,5.58l106.95,120.44c2.7,3.04,4.19,6.96,4.19,11.02v323.23c0,17.81-7.65,33.42-21.54,43.96-11.55,8.77-26.82,13.59-43,13.59s-31.53-4.83-43.16-13.61c-13.98-10.56-21.68-26.16-21.68-43.94v-121.44c0-8.07-.08-14.93-1.16-17.1l-.1-.2-.17-.14c-.74-.59-4.04-2.65-15.66-4.15-9.69-1.25-23.46-1.91-43.34-2.09h-1.01s0,1,0,1v122.39c0,22.36-8.91,43.26-25.09,58.85l-1.79,1.72h29.09c21.83,0,39.6,13.94,39.6,31.08v46.38c0,17.14-17.76,31.08-39.6,31.08H205.92c-21.83,0-39.6-13.94-39.6-31.08v-46.38c0-17.14,17.76-31.08,39.6-31.08h29.09l-1.79-1.72c-16.18-15.58-25.09-36.48-25.09-58.85V204.26c0-45.08,36.67-81.75,81.75-81.75h295.22M289.88,782.21h295.22c27.48,0,49.84-22.36,49.84-49.84V204.26c0-27.48-22.36-49.84-49.84-49.84h-295.22c-27.48,0-49.84,22.36-49.84,49.84v528.11c0,27.48,22.36,49.84,49.84,49.84M824.47,491.45v-54.26l-.25-.28-31.92-35.94-1.76-1.99.02,2.66c.17,28.15,1.35,47.11,6.91,60.7,4.36,10.67,11.98,19.06,25.46,28.08l1.56,1.04M205.92,880.31h463.14c6.76,0,12.26-4.44,12.26-9.9v-46.38c0-5.46-5.5-9.9-12.26-9.9H205.92c-6.76,0-12.26,4.44-12.26,9.9v46.38c0,5.46,5.5,9.9,12.26,9.9M585.11,121.51h-295.22c-45.63,0-82.75,37.12-82.75,82.75v528.11c0,23.38,9.76,44.5,25.4,59.57h-26.61c-22.39,0-40.6,14.39-40.6,32.08v46.38c0,17.69,18.21,32.08,40.6,32.08h463.14c22.39,0,40.6-14.39,40.6-32.08v-46.38c0-17.69-18.21-32.08-40.6-32.08h-26.61c15.64-15.06,25.4-36.19,25.4-59.57v-122.39c19.98.18,33.58.84,43.22,2.08,11.68,1.51,14.7,3.56,15.16,3.94,1.06,2.14,1.06,10.52,1.05,16.66v121.45c0,18.1,7.84,33.99,22.08,44.74,11.8,8.91,27.34,13.81,43.76,13.81s31.88-4.9,43.61-13.8c14.14-10.73,21.93-26.63,21.93-44.76v-323.23c0-4.31-1.58-8.47-4.44-11.69l-106.95-120.44c-3.48-3.92-8.31-5.91-13.17-5.91-4.16,0-8.33,1.46-11.68,4.44-7.27,6.45-7.93,17.58-1.47,24.85l35.45,39.92c0,4.76-.02,9.35-.04,13.77-.17,47.23-.27,75.74,9.44,99.46,10.07,24.62,29.61,40.04,57.67,55.23v223.6c0,18.43-19.07,23.35-30.34,23.35s-30.63-4.92-30.63-23.35v-121.44c0-9.26,0-17.26-1.95-24.78-2.72-10.45-8.94-18.32-18.49-23.41-12.73-6.78-31.45-9.33-74.2-9.7V204.26c0-45.63-37.12-82.75-82.75-82.75h0ZM289.88,781.21c-26.93,0-48.84-21.91-48.84-48.84V204.26c0-26.93,21.91-48.84,48.84-48.84h295.22c26.93,0,48.84,21.91,48.84,48.84v528.11c0,26.93-21.91,48.84-48.84,48.84h-295.22ZM823.47,489.58c-13.62-9.11-20.91-17.42-25.09-27.62-5.52-13.5-6.67-32.27-6.83-60.32l31.92,35.94v52.01h0ZM205.92,879.31c-6.21,0-11.26-3.99-11.26-8.9v-46.38c0-4.91,5.05-8.9,11.26-8.9h463.14c6.21,0,11.26,3.99,11.26,8.9v46.38c0,4.91-5.05,8.9-11.26,8.9H205.92Z"/>
      </g>
    </g>
  </g>
</svg>